<svg width="412" height="71" viewBox="0 0 412 71" fill="none" xmlns="http://www.w3.org/2000/svg">
<g filter="url(#filter0_i_101_2)">
<path d="M40.7 35.6C40.7 29.8 40.6667 26 40.6 24.2C40.4667 21.4667 40.1 19.5 39.5 18.3C38.9 17.0333 37.9333 16.2667 36.6 16C35.2667 15.8 33.3667 15.7 30.9 15.7C28.0333 15.7 26.1667 15.8333 25.3 16.1V0.499995C25.9 0.433329 26.8 0.399996 28 0.399996H30.9C38.3667 0.399996 44.1333 0.999996 48.2 2.2C52.3333 3.33333 55.3333 5.23333 57.2 7.89999C58.9333 10.3667 60 13.6 60.4 17.6C60.8667 21.6 61.1 27.6 61.1 35.6C61.1 42.6 60.9333 48 60.6 51.8C60.3333 55.5333 59.6 58.6333 58.4 61.1C57.0667 63.9 55 66.0333 52.2 67.5C49.4667 68.9667 45.6333 69.9333 40.7 70.4V35.6ZM30.9 70.8C21.1667 70.8 14.1667 69.7333 9.9 67.6C7.7 66.5333 5.96667 65.1 4.7 63.3C3.43333 61.5 2.5 59.2667 1.9 56.6C1.36667 54.2667 1.03333 51.6 0.9 48.6C0.766667 45.5333 0.7 41.2 0.7 35.6C0.7 28.6 0.833334 23.2333 1.1 19.5C1.43333 15.7667 2.2 12.6333 3.4 10.1C4.73333 7.36666 6.76667 5.26666 9.5 3.79999C12.2333 2.33333 16.1 1.33333 21.1 0.799997V35.6C21.1 39.5333 21.1667 43.3 21.3 46.9C21.4333 49.6333 21.7667 51.6333 22.3 52.9C22.9 54.1667 23.8667 54.9 25.2 55.1C26.3333 55.3667 28.2333 55.5 30.9 55.5C33.6333 55.5 35.5 55.4 36.5 55.2V70.7C35.9 70.7667 35 70.8 33.8 70.8H30.9ZM72.3242 4V1.2H92.3242L130.924 67.1V70H111.024L72.3242 4ZM111.924 26.3V1.2H130.924V58.8L111.924 26.3ZM72.3242 12.3L91.3242 44.8V70H72.3242V12.3ZM143.906 1.2H163.906V70H143.906V1.2ZM168.106 1.2H193.506V16.5H168.106V1.2ZM168.106 27.6H188.806V42.9H168.106V27.6ZM168.106 54.7H193.506V70H168.106V54.7ZM205.527 1.2H225.527V70H205.527V1.2ZM229.727 1.2H253.127V16.5H229.727V1.2ZM229.727 29.6H249.427V44.9H229.727V29.6ZM263.145 1.2H283.145V70H263.145V1.2ZM287.345 53.9H308.745V70H287.345V53.9ZM317.246 1.2H337.246V70H317.246V1.2ZM344.654 1.2H367.354L411.054 70H388.254L344.654 1.2ZM381.254 15.2L388.854 1.2H410.754L391.754 31.8L381.254 15.2ZM363.454 38.8L373.854 55.3L366.154 70H344.254L363.454 38.8Z" fill="#BB65FF"/>
</g>
<defs>
<filter id="filter0_i_101_2" x="0.700001" y="0.399994" width="413.354" height="73.4" filterUnits="userSpaceOnUse" color-interpolation-filters="sRGB">
<feFlood flood-opacity="0" result="BackgroundImageFix"/>
<feBlend mode="normal" in="SourceGraphic" in2="BackgroundImageFix" result="shape"/>
<feColorMatrix in="SourceAlpha" type="matrix" values="0 0 0 0 0 0 0 0 0 0 0 0 0 0 0 0 0 0 127 0" result="hardAlpha"/>
<feOffset dx="5" dy="6"/>
<feGaussianBlur stdDeviation="1.5"/>
<feComposite in2="hardAlpha" operator="arithmetic" k2="-1" k3="1"/>
<feColorMatrix type="matrix" values="0 0 0 0 0 0 0 0 0 0 0 0 0 0 0 0 0 0 0.25 0"/>
<feBlend mode="normal" in2="shape" result="effect1_innerShadow_101_2"/>
</filter>
</defs>
</svg>
